<svg xmlns="http://www.w3.org/2000/svg" data-name="Layer 1" width="842.73" height="573"><path d="M756.019 559.405c-18.9 13.616-43.394 14.3-67.07 12.627a490.996 490.996 0 0 1-9.841-.802c-.02-.005-.046-.003-.066-.009-.156-.014-.313-.03-.462-.038l-2.008-.189.157.3.493.93-.531-.927c-.052-.094-.11-.187-.163-.28-6.133-10.674-12.216-21.739-13.768-33.926-1.604-12.65 2.904-26.975 14.037-33.192a22.467 22.467 0 0 1 4.61-1.931c.666-.203 1.341-.367 2.024-.512a24.081 24.081 0 0 1 28.004 31.304c9.44-9.68 7.679-25.381 4.423-38.504-3.263-13.123-7.212-27.725-.577-39.512 3.689-6.56 10.175-10.63 17.455-12.27.223-.049.446-.097.67-.138a35.144 35.144 0 0 1 25.249 4.424c13.918 8.77 21.067 25.401 23.388 41.692 3.738 26.215-4.535 55.471-26.024 70.953Z" fill="#f2f2f2"/><path d="M749.917 517.382a59.742 59.742 0 0 1-4.124 16.835 51.875 51.875 0 0 1-8.054 13.156 66.465 66.465 0 0 1-25.53 18.41 95.66 95.66 0 0 1-23.26 6.25 490.996 490.996 0 0 1-9.841-.803c-.02-.005-.046-.003-.066-.009-.156-.014-.313-.03-.462-.038l-2.008-.189.157.3.493.93-.531-.927c-.052-.094-.11-.187-.163-.28a52.878 52.878 0 0 0 14.82-46.257 53.331 53.331 0 0 0-9.94-22.792c.665-.202 1.34-.367 2.023-.512a55.293 55.293 0 0 1 5.044 8.354 54.18 54.18 0 0 1 4.674 33.706 55.393 55.393 0 0 1-14.034 27.63 92.49 92.49 0 0 0 1.893-.154c11.818-1.001 23.612-3.542 34.332-8.746a61.833 61.833 0 0 0 23.163-19.006c6.492-8.953 9.353-19.723 9.844-30.669a129.429 129.429 0 0 0-3.673-35.039 147.068 147.068 0 0 0-12.358-33.663 1.057 1.057 0 0 1 .42-1.395.9.9 0 0 1 .67-.138.783.783 0 0 1 .516.442 160.879 160.879 0 0 1 1.977 3.973 148.738 148.738 0 0 1 11.644 34.924c2.35 11.652 3.603 23.841 2.374 35.707Z" fill="#fff"/><path d="M35.16 182.126a4.535 4.535 0 0 1-1.645-.31 4.475 4.475 0 0 1-2.87-4.197v-47.033a6.012 6.012 0 0 0-6.004-6.005h-9.632A15.026 15.026 0 0 1 0 109.571V15.01A15.026 15.026 0 0 1 15.01 0h339.725a15.026 15.026 0 0 1 15.009 15.01v94.562a15.026 15.026 0 0 1-15.01 15.01H92.516a6.02 6.02 0 0 0-4.427 1.946l-49.621 54.134a4.476 4.476 0 0 1-3.307 1.464ZM15.01 2A13.024 13.024 0 0 0 2 15.01v94.562a13.024 13.024 0 0 0 13.01 13.009h9.63a8.014 8.014 0 0 1 8.005 8.005v47.033a2.503 2.503 0 0 0 4.347 1.691l49.622-54.133a8.026 8.026 0 0 1 5.901-2.596h262.22a13.024 13.024 0 0 0 13.009-13.01V15.01A13.024 13.024 0 0 0 354.734 2Z" fill="#ccc"/><circle cx="36.816" cy="29.456" r="13.134" fill="#ccc"/><path d="M339.412 102.13H30.332a7.005 7.005 0 1 1 0-14.01h309.08a7.005 7.005 0 1 1 0 14.01ZM238.72 72.36H30.332a7.005 7.005 0 1 1 0-14.01H238.72a7.005 7.005 0 1 1 0 14.01ZM35.16 515.722a4.535 4.535 0 0 1-1.645-.31 4.475 4.475 0 0 1-2.87-4.197v-47.033a6.012 6.012 0 0 0-6.004-6.005h-9.632A15.026 15.026 0 0 1 0 443.168v-94.563a15.026 15.026 0 0 1 15.01-15.009h339.725a15.026 15.026 0 0 1 15.009 15.01v94.562a15.026 15.026 0 0 1-15.01 15.01H92.516a6.02 6.02 0 0 0-4.427 1.947l-49.621 54.133a4.476 4.476 0 0 1-3.307 1.464ZM15.01 335.596A13.024 13.024 0 0 0 2 348.606v94.562a13.024 13.024 0 0 0 13.01 13.01h9.63a8.014 8.014 0 0 1 8.005 8.004v47.033a2.503 2.503 0 0 0 4.347 1.691l49.622-54.133a8.026 8.026 0 0 1 5.901-2.596h262.22a13.024 13.024 0 0 0 13.009-13.009v-94.563a13.024 13.024 0 0 0-13.01-13.009Z" fill="#ccc"/><path d="M536.843 342.357a4.475 4.475 0 0 1-3.307-1.464l-49.622-54.133a6.02 6.02 0 0 0-4.426-1.948h-262.22a15.026 15.026 0 0 1-15.009-15.009v-94.562a15.026 15.026 0 0 1 15.01-15.01h339.725a15.026 15.026 0 0 1 15.009 15.01v94.562a15.026 15.026 0 0 1-15.01 15.01h-9.63a6.012 6.012 0 0 0-6.005 6.004v47.034a4.474 4.474 0 0 1-2.87 4.195 4.526 4.526 0 0 1-1.645.311ZM217.268 162.231a13.024 13.024 0 0 0-13.009 13.01v94.562a13.024 13.024 0 0 0 13.01 13.01h262.219a8.024 8.024 0 0 1 5.9 2.595l49.623 54.133a2.503 2.503 0 0 0 4.347-1.69v-47.034a8.014 8.014 0 0 1 8.004-8.004h9.632a13.024 13.024 0 0 0 13.009-13.01v-94.562a13.024 13.024 0 0 0-13.01-13.01Z" fill="#3f3d56"/><circle cx="36.816" cy="363.053" r="13.134" fill="#ccc"/><path d="M339.412 435.726H30.332a7.005 7.005 0 1 1 0-14.01h309.08a7.005 7.005 0 1 1 0 14.01ZM238.72 405.956H30.332a7.005 7.005 0 1 1 0-14.01H238.72a7.005 7.005 0 1 1 0 14.01Z" fill="#ccc"/><circle cx="239.075" cy="188.812" r="13.134" fill="#3f3d56"/><path d="M541.671 261.485h-309.08a7.005 7.005 0 1 1 0-14.01h309.08a7.005 7.005 0 1 1 0 14.01ZM440.98 231.715H232.59a7.005 7.005 0 1 1 0-14.009H440.98a7.005 7.005 0 1 1 0 14.01Z" fill="#2c3451"/><path d="M541.536 360.359a10.056 10.056 0 0 1 13.594-7.278l23.46-26.956 4.982 17.889-23.04 22.855a10.11 10.11 0 0 1-18.996-6.51Z" fill="#ffb8b8"/><circle cx="670.29" cy="209.301" r="24.561" fill="#ffb8b8"/><path fill="#ffb8b8" d="m641.436 547.373-12.259-.001-5.833-47.288 18.095.001-.003 47.288z"/><path d="m644.563 559.257-39.53-.001v-.5a15.386 15.386 0 0 1 15.386-15.387h.001l24.144.001Z" fill="#2f2e41"/><path fill="#ffb8b8" d="m678.436 560.373-12.259-.001-1.698-46.158 13.96-1.129-.003 47.288z"/><path d="m681.563 572.257-39.53-.001v-.5a15.386 15.386 0 0 1 15.386-15.387h.001l24.144.001ZM674.95 551.743l-9.547-1.124a4.512 4.512 0 0 1-3.974-4.404l-1.79-124.339a1.5 1.5 0 0 0-2.913-.478l-13.246 37.4.948 70.1a4.498 4.498 0 0 1-4.23 4.553l-12.463.53a4.527 4.527 0 0 1-4.744-3.925l-6.51-79.3-.004-.05 9.877-82.82 74.183 5.367-20.593 174.549a4.507 4.507 0 0 1-4.466 3.973 4.4 4.4 0 0 1-.529-.032Z" fill="#2f2e41"/><path d="M626.67 375.228a4.473 4.473 0 0 1-2.354-3.618s6.67-41.485 9.115-42.263l-5.348-44.363a40.91 40.91 0 0 1 8.78-30.49 39.013 39.013 0 0 1 27.032-14.483q1.121-.101 2.23-.154a39.369 39.369 0 0 1 33.134 15.082 40.12 40.12 0 0 1 7.22 36.406l-3 10.44v72.955a4.555 4.555 0 0 1-1.862 3.654c-9.34 6.855-19.897 9.279-30.155 9.279-19.411 0-37.757-8.68-44.791-12.445Z" fill="#2c3451"/><path d="m569.081 361.877-12.902-9.648a4.5 4.5 0 0 1-.597-6.672l76.863-82.475a15.053 15.053 0 0 1 19.521-2.075 14.978 14.978 0 0 1 1.926 22.976l-78.964 77.502a4.472 4.472 0 0 1-5.362.709 4.621 4.621 0 0 1-.485-.317Z" fill="#2c3451"/><path d="M667.83 350.957a10.056 10.056 0 0 1 14.715-4.607l28.086-22.093 1.55 18.505-26.909 18.143a10.11 10.11 0 0 1-17.442-9.948Z" fill="#ffb8b8"/><path d="M692.969 359.582a4.464 4.464 0 0 1-3.023-3.249l-2.837-11.916a4.437 4.437 0 0 1 1.65-4.612l19.089-20.645-28.079-43.296a15.248 15.248 0 0 1-.462-18.626 15.242 15.242 0 0 1 26.295 2.995l26.104 50.81a23.118 23.118 0 0 1-7.72 29.795l-26.677 17.82a4.461 4.461 0 0 1-2.97 1.137 4.55 4.55 0 0 1-1.37-.213Z" fill="#2c3451"/><path d="M688.49 231.258a4.398 4.398 0 0 1-6.494-2.565l-.015-.061c-.5-2.044-.105-4.183.024-6.283s-.089-4.405-1.527-5.94c-2.68-2.863-7.414-1.313-11.271-2.02a9.51 9.51 0 0 1-7.453-10.117c.053-.436.136-.873.23-1.31a7.325 7.325 0 0 0-7.65-8.83c-3.894.243-8.091 1.446-11.329-1.422a8.35 8.35 0 0 1-2.053-8.991c1.811-5.321 6.997-8.13 12.135-9.685a44.588 44.588 0 0 1 37.826 5.999c3.262 2.274 6.313 5.136 7.719 8.856s.762 8.427-2.349 10.904a20.123 20.123 0 0 1 4.765 19.52c-1.516 4.98-8.854 9.787-12.558 11.945Z" fill="#2f2e41"/><path d="M842.73 572a1.003 1.003 0 0 1-1 1h-381a1 1 0 0 1 0-2h381a1.003 1.003 0 0 1 1 1Z" fill="#3f3d56"/></svg>