<svg xmlns="http://www.w3.org/2000/svg" width="894.264" height="227.88"><path d="M0 226.69c0 .66.53 1.19 1.19 1.19h885.29c.66 0 1.19-.53 1.19-1.19 0-.66-.53-1.19-1.19-1.19H1.19c-.66 0-1.19.53-1.19 1.19Z" fill="#3f3d56"/><path fill="#e6e6e6" d="M420.539 99.244v124.687H24.665V115.187l13.137-26.152h377.32l5.417 10.209z"/><path fill="#2f2e41" d="m444.264 143.942-23.725-16.634-42.028-29.46-62.364 47.45-291.482 1.627-15.99.088 15.99-31.826 13.137-26.152L53.813 27.35l343.678-1.355 17.632 63.041 5.416 10.209 23.725 44.698z"/><path fill="#e6e6e6" d="M271.408 127.284H114.143v-66.43l78.633-28.76 78.632 28.76v66.43z"/><path fill="#fff" d="M37.206 155.805h69.142v68.126H37.206zM132.785 155.805H258.19v68.126H132.785zM281.915 161.228h21.014v62.703h-21.014z"/><path fill="#2c3451" d="M351.38 147.01h42.755v43.247H351.38z"/><path fill="#e6e6e6" d="M371.037 147.01h2.949v43.247h-2.949z"/><path fill="#2c3451" d="M215.129 72.445h42.755v43.247h-42.755z"/><path fill="#e6e6e6" d="M234.786 72.445h2.949v43.247h-2.949z"/><path fill="#2c3451" d="M136.496 72.445h42.755v43.247h-42.755z"/><path fill="#e6e6e6" d="M156.154 72.445h2.949v43.247h-2.949zM870.539 99.244v124.687H474.665V115.187l13.137-26.152h377.32l5.417 10.209z"/><path fill="#2f2e41" d="m894.264 143.942-23.725-16.634-42.028-29.46-62.364 47.45-291.482 1.627-15.99.088 15.99-31.826 13.137-26.152 16.011-61.686 343.678-1.355 17.632 63.041 5.416 10.209 23.725 44.698z"/><path fill="#e6e6e6" d="M721.408 127.284H564.143v-66.43l78.633-28.76 78.632 28.76v66.43z"/><path fill="#fff" d="M487.206 155.805h69.142v68.126h-69.142zM582.785 155.805H708.19v68.126H582.785zM731.915 161.228h21.014v62.703h-21.014z"/><path fill="#2c3451" d="M801.38 147.01h42.755v43.247H801.38z"/><path fill="#e6e6e6" d="M821.037 147.01h2.949v43.247h-2.949z"/><path fill="#2c3451" d="M665.129 72.445h42.755v43.247h-42.755z"/><path fill="#e6e6e6" d="M684.786 72.445h2.949v43.247h-2.949z"/><path fill="#2c3451" d="M586.496 72.445h42.755v43.247h-42.755z"/><path fill="#e6e6e6" d="M606.154 72.445h2.949v43.247h-2.949z"/><path fill="#3f3d56" d="M812.264 111.931h20v20h-20zM367.264 111.931h20v20h-20z"/><path fill="#2f2e41" d="M226.967 0h10v32h-10zM659.967 0h10v32h-10z"/></svg>