<svg xmlns="http://www.w3.org/2000/svg" viewBox="0 0 24 24"><path d="m23.961 11.954-.017-.007.049.049c.021 0-.032-.042-.032-.042zM23.272 12.518v.044l.094.04z"/><linearGradient id="a" x1="-1830.001" x2="-1829.001" y1="-1809.456" y2="-1809.456" gradientTransform="matrix(0 20.6284 20.6284 0 37340.602 37752.14)" gradientUnits="userSpaceOnUse"><stop offset="0" stop-color="#39c4b6"/><stop offset="1" stop-color="#529ac3"/></linearGradient><path fill="url(#a)" d="m16.159 8.413.575-3.562L14.6 2.609l-2.511 3.864v.054c.108.163.184.359.208.57l.001.006 3.505 1.487a1.03 1.03 0 0 1 .35-.176l.006-.001z"/><linearGradient id="b" x1="-1830.001" x2="-1829.001" y1="-1809.456" y2="-1809.456" gradientTransform="matrix(0 20.6284 20.6284 0 37345.875 37752.14)" gradientUnits="userSpaceOnUse"><stop offset="0" stop-color="#39c4b6"/><stop offset="1" stop-color="#529ac3"/></linearGradient><path fill="url(#b)" d="m23.327 12.604-5.934-2.537c-.166.22-.414.37-.696.407l-.005.001-.648 3.971c.187.188.303.447.304.733l3.642.765 3.338-3.321v-.019z"/><linearGradient id="c" x1="-1830.001" x2="-1829.001" y1="-1809.456" y2="-1809.456" gradientTransform="matrix(0 20.6284 20.6284 0 37347.059 37752.14)" gradientUnits="userSpaceOnUse"><stop offset="0" stop-color="#39c4b6"/><stop offset="1" stop-color="#529ac3"/></linearGradient><path fill="url(#c)" d="m20.293 8.276-2.555 1.048L24 11.987z"/><linearGradient id="d" x1="-1830.001" x2="-1829.001" y1="-1809.364" y2="-1809.364" gradientTransform="matrix(0 20.6284 20.6284 0 37338.016 37752.14)" gradientUnits="userSpaceOnUse"><stop offset="0" stop-color="#39c4b6"/><stop offset="1" stop-color="#529ac3"/></linearGradient><path fill="url(#d)" d="M12.161 7.846a1.218 1.218 0 0 1-.161.196v2.893l3.445-1.495-.003-.074.004-.088v.004l.001-.009-.01-.033-3.276-1.394z"/><linearGradient id="e" x1="-1830.001" x2="-1829.001" y1="-1809.456" y2="-1809.456" gradientTransform="matrix(0 20.6284 20.6284 0 37343.398 37752.14)" gradientUnits="userSpaceOnUse"><stop offset="0" stop-color="#39c4b6"/><stop offset="1" stop-color="#529ac3"/></linearGradient><path fill="url(#e)" d="M16.21 15.913a1.1 1.1 0 0 1-.454.343l-.007.003-.763 4.736 4.447-4.411-.021.02v-.03l-3.202-.661z"/><linearGradient id="f" x1="-1830.001" x2="-1829.001" y1="-1809.456" y2="-1809.456" gradientTransform="matrix(0 20.6284 20.6284 0 37344.477 37752.14)" gradientUnits="userSpaceOnUse"><stop offset="0" stop-color="#39c4b6"/><stop offset="1" stop-color="#529ac3"/></linearGradient><path fill="url(#f)" d="M16.974 8.507c.118.061.219.138.303.23l.001.001 2.354-1.049-2.197-2.179-.491 2.964.03.033z"/><linearGradient id="g" x1="-1830.001" x2="-1829.001" y1="-1809.456" y2="-1809.456" gradientTransform="matrix(0 20.6284 20.6284 0 37341.637 37752.14)" gradientUnits="userSpaceOnUse"><stop offset="0" stop-color="#39c4b6"/><stop offset="1" stop-color="#529ac3"/></linearGradient><path fill="url(#g)" d="M15.446 9.439h-.001l.001.01z"/><linearGradient id="h" x1="-1830.001" x2="-1829.001" y1="-1809.289" y2="-1809.289" gradientTransform="matrix(0 20.6284 20.6284 0 37335.293 37752.14)" gradientUnits="userSpaceOnUse"><stop offset="0" stop-color="#39c4b6"/><stop offset="1" stop-color="#529ac3"/></linearGradient><path fill="url(#h)" d="M12 21.233V23.9l1.092-1.083L12 21.233z"/><linearGradient id="i" x1="-1830.001" x2="-1829.001" y1="-1809.368" y2="-1809.368" gradientTransform="matrix(0 20.6284 20.6284 0 37338.293 37752.14)" gradientUnits="userSpaceOnUse"><stop offset="0" stop-color="#39c4b6"/><stop offset="1" stop-color="#529ac3"/></linearGradient><path fill="url(#i)" d="M15.698 10.256 12 11.842v2.472l2.369.489a1.05 1.05 0 0 1 .822-.524h.004l.639-3.907-.136-.116z"/><linearGradient id="j" x1="-1830.001" x2="-1829.001" y1="-1809.335" y2="-1809.335" gradientTransform="matrix(0 20.6284 20.6284 0 37336.727 37752.14)" gradientUnits="userSpaceOnUse"><stop offset="0" stop-color="#39c4b6"/><stop offset="1" stop-color="#529ac3"/></linearGradient><path fill="url(#j)" d="M12 .049v5.243l2.044-3.197L12 .049z"/><linearGradient id="k" x1="-1830.001" x2="-1829.001" y1="-1809.365" y2="-1809.365" gradientTransform="matrix(0 20.6284 20.6284 0 37337.79 37752.14)" gradientUnits="userSpaceOnUse"><stop offset="0" stop-color="#39c4b6"/><stop offset="1" stop-color="#529ac3"/></linearGradient><path fill="url(#k)" d="M12 15.06v4.793l1.678 2.431.324-.326.921-5.689.01.008v-.028a1.049 1.049 0 0 1-.615-.705l-.002-.007L12 15.06z"/><linearGradient id="l" x1="-1830.001" x2="-1829.001" y1="-1809.456" y2="-1809.456" gradientTransform="matrix(0 20.6284 20.6284 0 37329.234 37752.14)" gradientUnits="userSpaceOnUse"><stop offset="0" stop-color="#32ab9e"/><stop offset="1" stop-color="#4786aa"/></linearGradient><path fill="url(#l)" d="m.534 12.737 2.208 2.243 2.784-1.184.03-.009-5.022-1.05z"/><linearGradient id="m" x1="-1830.001" x2="-1829.001" y1="-1809.456" y2="-1809.456" gradientTransform="matrix(0 20.6284 20.6284 0 37333.148 37752.14)" gradientUnits="userSpaceOnUse"><stop offset="0" stop-color="#32ab9e"/><stop offset="1" stop-color="#4786aa"/></linearGradient><path fill="url(#m)" d="M6.467 5.417 3.789 8.026l2.939 4.294.157-.007.165.008-.006-.001.172-.012.18.012h-.007l2.741-4.265a1.191 1.191 0 0 1-.335-.826l-.007-.136.008-.141-.001.006-3.328-1.541z"/><linearGradient id="n" x1="-1830.001" x2="-1829.001" y1="-1809.456" y2="-1809.456" gradientTransform="matrix(0 20.6284 20.6284 0 37329.219 37752.14)" gradientUnits="userSpaceOnUse"><stop offset="0" stop-color="#32ab9e"/><stop offset="1" stop-color="#4786aa"/></linearGradient><path fill="url(#n)" d="m6.061 12.748-.001.001.001-.001zM3.286 8.602 0 11.796l5.818 1.289h.002a1.6 1.6 0 0 1 .241-.335L3.286 8.602z"/><linearGradient id="o" x1="-1830.001" x2="-1829.001" y1="-1809.539" y2="-1809.539" gradientTransform="matrix(0 20.6284 20.6284 0 37338.016 37752.14)" gradientUnits="userSpaceOnUse"><stop offset="0" stop-color="#32ab9e"/><stop offset="1" stop-color="#4786aa"/></linearGradient><path fill="url(#o)" d="M12 8.042a1.197 1.197 0 0 1-.847.349l-.041-.001h-.198l-2.711 4.192L12 10.935V8.042z"/><path fill="#DEDEDE" d="m12 23.9-.101.1H12v-.1z"/><linearGradient id="p" x1="-1830.001" x2="-1829.001" y1="-1809.456" y2="-1809.456" gradientTransform="matrix(0 20.6284 20.6284 0 37330.848 37752.14)" gradientUnits="userSpaceOnUse"><stop offset="0" stop-color="#32ab9e"/><stop offset="1" stop-color="#4786aa"/></linearGradient><path fill="url(#p)" d="m5.882 14.446-2.543 1.048 1.235 1.226 1.401-2.179-.093-.095z"/><linearGradient id="q" x1="-1830.001" x2="-1829.001" y1="-1809.482" y2="-1809.482" gradientTransform="matrix(0 20.6284 20.6284 0 37335.293 37752.14)" gradientUnits="userSpaceOnUse"><stop offset="0" stop-color="#32ab9e"/><stop offset="1" stop-color="#4786aa"/></linearGradient><path fill="url(#q)" d="m6.655 15.02.01.003v-.001l-.01-.002zm1.026-.05a1.327 1.327 0 0 1-.564.126H7.11c-.155 0-.305-.026-.445-.073l-1.547 2.252L11.899 24l.101-.1v-2.666L7.681 14.97z"/><linearGradient id="r" x1="-1830.001" x2="-1829.001" y1="-1809.549" y2="-1809.549" gradientTransform="matrix(0 20.6284 20.6284 0 37338.293 37752.14)" gradientUnits="userSpaceOnUse"><stop offset="0" stop-color="#32ab9e"/><stop offset="1" stop-color="#4786aa"/></linearGradient><path fill="url(#r)" d="m12 11.842-3.627 1.556.099.178.004.012 3.524.726v-2.472z"/><linearGradient id="s" x1="-1830.001" x2="-1829.001" y1="-1809.505" y2="-1809.505" gradientTransform="matrix(0 20.6284 20.6284 0 37336.727 37752.14)" gradientUnits="userSpaceOnUse"><stop offset="0" stop-color="#32ab9e"/><stop offset="1" stop-color="#4786aa"/></linearGradient><path fill="url(#s)" d="m11.512 6.055.01.003a.022.022 0 0 1-.01-.003zM11.951 0 7.032 4.829v.064l3.245 1.383c.213-.177.489-.284.791-.284l.048.001h-.002c.139.001.272.023.398.063L12 5.292V.049L11.951 0z"/><linearGradient id="t" x1="-1830.001" x2="-1829.001" y1="-1809.527" y2="-1809.527" gradientTransform="matrix(0 20.6284 20.6284 0 37337.79 37752.14)" gradientUnits="userSpaceOnUse"><stop offset="0" stop-color="#32ab9e"/><stop offset="1" stop-color="#4786aa"/></linearGradient><path fill="url(#t)" d="m8.351 14.309-.083.137L12 19.853V15.06l-3.649-.751z"/></svg>